<svg width="72" height="63" viewBox="0 0 72 63" fill="none" xmlns="http://www.w3.org/2000/svg">
<path fill-rule="evenodd" clip-rule="evenodd" d="M57.9071 0.00090206L62.1128 10.8696C62.1128 10.8696 45.3909 9.26491 30.7382 13.963C20.5772 17.2219 20.4931 24.9142 33.5645 24.236C44.5497 23.657 66.1334 20.1169 70.8774 33.351C74.4439 43.3097 65.6624 53.5001 45.7946 59.2735C30.3008 63.7731 12.3004 61.9368 12.3004 61.9368L8.19566 51.1013C8.19566 51.1013 25.9606 54.1948 40.3104 48.2063C54.492 42.284 50.7405 36.4445 34.3383 38.2807C19.7361 39.9184 4.461 40.3486 0.945033 31.0681C-2.57093 21.7711 3.31704 9.29789 25.4895 3.72301C36.0879 1.07618 46.9891 -0.164509 57.9071 0.0174609V0.00090206Z" fill="var(-----------S---, #222222)"/>
</svg>
