<svg width="66" height="53" viewBox="0 0 66 53" fill="none" xmlns="http://www.w3.org/2000/svg">
<path d="M58.1094 2.16406H7.58464C4.59309 2.16406 2.16797 4.58919 2.16797 7.58073V44.5859C2.16797 47.5775 4.59309 50.0026 7.58463 50.0026H58.1094C61.101 50.0026 63.5261 47.5775 63.5261 44.5859V7.58073C63.5261 4.58919 61.101 2.16406 58.1094 2.16406Z" stroke="#2D2D32" stroke-width="4.33333" stroke-miterlimit="10" stroke-linejoin="round"/>
<path d="M20.8864 14.6484H16.7266V18.8083H20.8864V14.6484Z" fill="#2D2D32"/>
<path d="M28.1677 14.6484H24.0078V18.8083H28.1677V14.6484Z" fill="#2D2D32"/>
<path d="M41.6872 14.6484H37.5273V18.8083H41.6872V14.6484Z" fill="#2D2D32"/>
<path d="M28.1677 25.0469H24.0078V29.2067H28.1677V25.0469Z" fill="#2D2D32"/>
<path d="M41.6872 25.0469H37.5273V29.2067H41.6872V25.0469Z" fill="#2D2D32"/>
<path d="M28.1662 35.4453L16.7266 35.4453V39.6052L28.1662 39.6052V35.4453Z" fill="#2D2D32"/>
<path d="M48.967 35.4453L37.5273 35.4453V39.6052L48.967 39.6052V35.4453Z" fill="#2D2D32"/>
<path d="M48.9685 14.6484H44.8086V18.8083H48.9685V14.6484Z" fill="#2D2D32"/>
<path d="M20.8864 25.0469H16.7266V29.2067H20.8864V25.0469Z" fill="#2D2D32"/>
<path d="M48.9685 25.0469H44.8086V29.2067H48.9685V25.0469Z" fill="#2D2D32"/>
<path d="M58.3242 22.9609L53.1244 26.8608L58.3242 30.7607V22.9609Z" fill="#2D2D32"/>
<path d="M7.36719 22.9609L12.567 26.8608L7.36719 30.7607V22.9609Z" fill="#2D2D32"/>
</svg>
