<svg width="15" height="15" viewBox="0 0 15 15" fill="none" xmlns="http://www.w3.org/2000/svg">
<path d="M11.0544 6.03743L14.4285 7.0105C14.795 7.08632 14.795 7.61708 14.4285 7.69291L11.0544 8.66597C9.85387 8.90608 8.90608 9.85387 8.66598 11.0544L7.69291 14.4285C7.61709 14.795 7.08632 14.795 7.0105 14.4285L6.03743 11.0544C5.79733 9.85387 4.84953 8.90608 3.649 8.66597L0.274859 7.69291C-0.0916198 7.61708 -0.0916198 7.08632 0.274859 7.0105L3.649 6.03743C4.84953 5.79732 5.79733 4.84953 6.03743 3.649L7.0105 0.27486C7.08632 -0.0916198 7.61709 -0.0916198 7.69291 0.27486L8.66598 3.649C8.90608 4.84953 9.85387 5.79732 11.0544 6.03743Z" fill="var(-----------S---, #222222)"/>
</svg>
