<svg width="66" height="49" viewBox="0 0 66 49" fill="none" xmlns="http://www.w3.org/2000/svg">
<path d="M27.0068 2.5L53.0303 2.5C55.3114 2.5 56.8725 2.50188 58.0811 2.60059C59.2605 2.69695 59.8836 2.87314 60.3281 3.09961C61.3628 3.62692 62.2042 4.46819 62.7314 5.50293C62.9579 5.94739 63.1341 6.5697 63.2305 7.74902C63.3292 8.95759 63.3311 10.5184 63.3311 12.7998V36.2002C63.3311 38.4816 63.3292 40.0424 63.2305 41.251C63.1341 42.4303 62.9579 43.0526 62.7314 43.4971C62.2042 44.5318 61.3628 45.3731 60.3281 45.9004C59.8836 46.1269 59.2605 46.3031 58.0811 46.3994C56.8725 46.4981 55.3114 46.5 53.0303 46.5H27.0068C24.9792 46.5 24.3631 46.4847 23.8086 46.3545C23.2589 46.2254 22.7319 46.012 22.2471 45.7227C21.7581 45.4308 21.3048 45.0134 19.8477 43.6045L7.74707 31.9043C6.05685 30.27 4.89955 29.1495 4.07617 28.21C3.27157 27.2918 2.94237 26.7162 2.78223 26.2344C2.40801 25.1083 2.40801 23.8917 2.78223 22.7656C2.94237 22.2838 3.27157 21.7082 4.07617 20.79C4.89955 19.8505 6.05685 18.73 7.74707 17.0957L19.8477 5.39551C21.3048 3.98659 21.7581 3.56922 22.2471 3.27734C22.7319 2.98801 23.2589 2.77458 23.8086 2.64551C24.3631 2.51533 24.9792 2.5 27.0068 2.5Z" stroke="#0D0D0D" stroke-width="5"/>
</svg>
