<svg width="68" height="82" viewBox="0 0 68 82" fill="none" xmlns="http://www.w3.org/2000/svg">
<path d="M43.6963 1.19091e-05C44.571 1.04235e-05 45.4405 -0.00228405 46.1738 0.0576291C46.8517 0.113048 47.6484 0.234866 48.4658 0.584973L48.8174 0.750012L49.0566 0.877942C50.2403 1.54128 51.2034 2.54136 51.8213 3.75392C52.2997 4.69283 52.4504 5.62268 52.5137 6.39747C52.5449 6.77922 52.5579 7.1978 52.5645 7.63478H58.542C63.4894 7.63496 67.5 11.6463 67.5 16.5938V72.4268C67.4997 77.374 63.4892 81.3846 58.542 81.3848H8.95898C4.0116 81.3848 0.000255685 77.3741 0 72.4268V16.5938C0 11.6462 4.01144 7.63478 8.95898 7.63478H14.9375C14.9441 7.19779 14.9581 6.77923 14.9893 6.39747C15.0526 5.62265 15.2032 4.69286 15.6816 3.75392C16.3407 2.46062 17.3922 1.40907 18.6855 0.750012C19.6244 0.271696 20.5543 0.120939 21.3291 0.0576291C22.0625 -0.00226689 22.9319 1.12267e-05 23.8066 1.19091e-05H43.6963ZM8.95898 14.7188C7.92345 14.7188 7.08398 15.5582 7.08398 16.5938V72.4268C7.08424 73.4621 7.9236 74.3018 8.95898 74.3018H58.542C59.5772 74.3016 60.4167 73.462 60.417 72.4268V16.5938C60.417 15.5583 59.5774 14.7189 58.542 14.7188H52.5645C52.5579 15.1586 52.545 15.5798 52.5137 15.9639C52.4504 16.7387 52.2997 17.6685 51.8213 18.6074C51.1622 19.9009 50.1108 20.9532 48.8174 21.6123C47.8786 22.0907 46.9486 22.2414 46.1738 22.3047C45.4405 22.3646 44.571 22.3613 43.6963 22.3613H23.8066C22.9319 22.3613 22.0625 22.3646 21.3291 22.3047C20.5543 22.2414 19.6244 22.0906 18.6855 21.6123C17.392 20.9532 16.3408 19.901 15.6816 18.6074C15.2032 17.6684 15.0526 16.7387 14.9893 15.9639C14.9579 15.5798 14.944 15.1586 14.9375 14.7188H8.95898ZM37.5771 48.2422C39.5328 48.2425 41.1181 49.8285 41.1182 51.7842C41.1181 53.7399 39.5328 55.3259 37.5771 55.3262H18.4795C16.5236 55.3261 14.9376 53.7401 14.9375 51.7842C14.9376 49.8283 16.5236 48.2422 18.4795 48.2422H37.5771ZM49.0352 32.9629C50.991 32.963 52.5771 34.5491 52.5771 36.5049C52.5771 38.4608 50.991 40.0467 49.0352 40.0469H18.4795C16.5235 40.0468 14.9375 38.4609 14.9375 36.5049C14.9376 34.549 16.5236 32.9629 18.4795 32.9629H49.0352ZM23.8066 7.084C22.9269 7.084 22.4095 7.08635 22.04 7.10841C22.018 7.47794 22.0156 7.99501 22.0156 8.87501V13.4863C22.0156 14.3654 22.018 14.8825 22.04 15.252C22.4096 15.274 22.9268 15.2783 23.8066 15.2783H43.6963C44.5746 15.2783 45.0916 15.2739 45.4609 15.252C45.4829 14.8825 45.4873 14.3655 45.4873 13.4863V8.87501C45.4873 7.99494 45.483 7.47795 45.4609 7.10841C45.0916 7.08644 44.5746 7.084 43.6963 7.084H23.8066Z" fill="black"/>
</svg>
