<svg width="83" height="76" viewBox="0 0 83 76" fill="none" xmlns="http://www.w3.org/2000/svg">
<path fill-rule="evenodd" clip-rule="evenodd" d="M54.2869 0.00585938C54.5007 0.0189558 54.7134 0.0516756 54.9216 0.103516C59.3824 1.21408 66.1339 3.45796 72.9392 8.21777C76.9127 10.9971 79.8717 13.9119 82.0085 16.3818C82.7363 17.2231 83.0233 18.3595 82.782 19.4453L78.5691 38.4033C78.3516 39.3819 77.7265 40.2211 76.8513 40.71C75.9762 41.1988 74.9343 41.2907 73.9871 40.9629L67.699 38.7861V67.6289C67.699 71.8551 64.2729 75.2812 60.0466 75.2812H22.8191C18.593 75.2811 15.1667 71.855 15.1667 67.6289V38.7861L8.87963 40.9629C7.93231 41.2908 6.88957 41.1989 6.0144 40.71C5.13937 40.2211 4.51506 39.3818 4.2976 38.4033C3.59542 35.2436 2.89233 32.0836 2.19018 28.9238C1.48807 25.7643 0.785863 22.6048 0.083732 19.4453C-0.157568 18.3595 0.129446 17.2231 0.85717 16.3818C2.99398 13.9118 5.95377 10.9971 9.92748 8.21777C16.7329 3.45801 23.4843 1.21405 27.9451 0.103516L28.154 0.0585938C28.365 0.0195208 28.5798 0 28.7947 0H54.072L54.2869 0.00585938ZM57.0017 8.0293C56.0376 15.7485 49.4072 21.6855 41.4216 21.6855C33.4387 21.6855 26.8091 15.7526 25.8415 8.03711C22.3519 9.20558 18.1561 11.0441 13.9578 13.9805C11.2127 15.9005 9.03624 17.8892 7.34154 19.6895C7.9126 22.2592 8.48437 24.8287 9.05541 27.3984C9.47233 29.2746 9.88848 31.1512 10.3054 33.0273L17.533 30.5264C18.6077 30.1544 19.796 30.3257 20.7224 30.9854C21.6486 31.645 22.1989 32.7115 22.199 33.8486V67.6289C22.199 67.9715 22.4766 68.2498 22.8191 68.25H60.0466C60.3893 68.25 60.6667 67.9716 60.6667 67.6289V33.8486C60.6668 32.7116 61.2172 31.645 62.1433 30.9854C63.0696 30.3257 64.2581 30.1545 65.3328 30.5264L72.5593 33.0283L75.5232 19.6904C73.8286 17.8903 71.6537 15.9003 68.9089 13.9805C64.7014 11.0376 60.496 9.19741 57.0017 8.0293ZM32.8054 7.03125C33.2808 11.2962 36.9319 14.6533 41.4216 14.6533C45.9114 14.6533 49.5624 11.2962 50.0378 7.03125H32.8054Z" fill="black"/>
</svg>
