<svg width="94" height="81" viewBox="0 0 94 81" fill="none" xmlns="http://www.w3.org/2000/svg">
<path d="M64.79 0C69.2173 0.000140842 72.8065 3.58936 72.8066 8.0166V22.2705H65.4404V8.0166C65.4403 7.65785 65.1488 7.36733 64.79 7.36719H8.0166C7.65787 7.36736 7.36736 7.65787 7.36719 8.0166V72.4902C7.36742 72.8489 7.65791 73.1395 8.0166 73.1396H66.0869V80.5068H8.0166C3.5894 80.5067 0.000231806 76.9174 0 72.4902V8.0166C0.000175484 3.58938 3.58938 0.00017548 8.0166 0H64.79ZM65.5518 26.5967C77.2148 26.5968 86.6697 36.0518 86.6699 47.7148C86.6699 52.3918 85.1477 56.7125 82.5742 60.2119L92.5146 70.1592C93.9524 71.5981 93.9515 73.9303 92.5127 75.3682C91.0738 76.8056 88.7415 76.8048 87.3037 75.3662L77.2451 65.3008C73.8971 67.5315 69.8766 68.833 65.5518 68.833C53.8887 68.8328 44.4337 59.3779 44.4336 47.7148C44.4338 36.0518 53.8887 26.5969 65.5518 26.5967ZM65.5518 33.9639C57.9572 33.964 51.801 40.1203 51.8008 47.7148C51.8009 55.3094 57.9572 61.4666 65.5518 61.4668C73.1463 61.4667 79.3036 55.3094 79.3037 47.7148C79.3035 40.1203 73.1463 33.964 65.5518 33.9639ZM32.3604 47.8232C34.3946 47.8232 36.0439 49.4726 36.0439 51.5068C36.0438 53.541 34.3945 55.1904 32.3604 55.1904H18.4941C16.4602 55.1902 14.8107 53.5408 14.8105 51.5068C14.8105 49.4727 16.4601 47.8235 18.4941 47.8232H32.3604ZM39.9912 24.417C42.0254 24.417 43.6748 26.0664 43.6748 28.1006C43.6748 30.1348 42.0255 31.7842 39.9912 31.7842H18.4941C16.4601 31.784 14.8105 30.1347 14.8105 28.1006C14.8106 26.0665 16.4601 24.4172 18.4941 24.417H39.9912Z" fill="black"/>
</svg>
