<svg width="87" height="80" viewBox="0 0 87 80" fill="none" xmlns="http://www.w3.org/2000/svg">
<path fill-rule="evenodd" clip-rule="evenodd" d="M76.3614 2.57462e-05C77.4616 2.54431e-05 78.4982 -0.00335325 79.3643 0.0674086C80.1581 0.132266 81.0422 0.271988 81.9346 0.654323L82.3174 0.83401L82.584 0.976588C83.9016 1.71495 84.9734 2.82803 85.6612 4.17776C86.1812 5.19842 86.3527 6.22371 86.4268 7.13089C86.4975 7.99699 86.4951 9.03358 86.4951 10.1338V56.4951C86.4951 57.5953 86.4975 58.632 86.4268 59.4981C86.3527 60.4052 86.1812 61.4305 85.6612 62.4512C84.9276 63.8909 83.7571 65.0613 82.3174 65.7949C81.2967 66.315 80.2714 66.4874 79.3643 66.5615C78.4982 66.6323 77.4616 66.6289 76.3614 66.6289H51.708L36.8047 76.8438C35.6348 77.6457 34.5574 78.3876 33.6455 78.8975C32.7801 79.3815 31.473 80.012 29.917 79.9141C27.9978 79.7932 26.234 78.8168 25.1123 77.2549C24.2029 75.9884 24.0427 74.5461 23.9932 73.5557C23.941 72.5123 23.9976 71.2053 24.0557 69.7881L24.1856 66.6289H10.1338C9.0336 66.6289 7.99698 66.6323 7.13089 66.5615C6.22371 66.4874 5.19842 66.315 4.17776 65.7949C2.73807 65.0613 1.56761 63.8909 0.83401 62.4512C0.313956 61.4305 0.141527 60.4052 0.0674083 59.4981C-0.00333366 58.632 2.55117e-05 57.5953 2.55117e-05 56.4951V10.1338C2.54746e-05 9.03361 -0.00334499 7.99698 0.0674083 7.13089C0.141527 6.22371 0.313956 5.19842 0.83401 4.17776C1.56763 2.73809 2.73809 1.56763 4.17776 0.83401C5.19842 0.313957 6.22371 0.141528 7.13089 0.0674086C7.99698 -0.00334472 9.03361 2.57178e-05 10.1338 2.57462e-05H76.3614ZM10.1338 7.03128C8.91752 7.03128 8.21651 7.03425 7.70315 7.0762C7.49957 7.09284 7.38434 7.11191 7.3301 7.12307C7.24537 7.17464 7.17464 7.24537 7.12307 7.3301C7.11191 7.38434 7.09284 7.49957 7.0762 7.70315C7.03425 8.21651 7.03128 8.91752 7.03128 10.1338V56.4951C7.03128 57.7114 7.03425 58.4124 7.0762 58.9258C7.09273 59.1281 7.11188 59.2432 7.12307 59.2979C7.1742 59.3822 7.24418 59.4523 7.32815 59.5039C7.3814 59.515 7.49667 59.5359 7.70315 59.5528C8.21651 59.5947 8.91752 59.5977 10.1338 59.5977H27.8487C28.806 59.5977 29.7218 59.9881 30.3848 60.6787C31.0478 61.3695 31.4006 62.3012 31.3614 63.2578L31.0821 70.0762C31.0438 71.0089 31.0179 71.7147 31.0088 72.2696C31.4742 71.9672 32.059 71.5709 32.8291 71.043L48.6299 60.2129L48.8545 60.0713C49.3887 59.7617 49.9967 59.5978 50.6172 59.5977H76.3614C77.5775 59.5977 78.2787 59.5947 78.792 59.5528C78.9974 59.536 79.1125 59.515 79.166 59.5039C79.2498 59.4526 79.319 59.3827 79.3701 59.2989C79.3813 59.2447 79.4023 59.1298 79.419 58.9258C79.4609 58.4124 79.4639 57.7114 79.4639 56.4951V10.1338C79.4639 8.91752 79.4609 8.21651 79.419 7.70315C79.4022 7.49793 79.3813 7.38282 79.3701 7.32913C79.3186 7.245 79.2484 7.17532 79.1641 7.12405C79.1096 7.11287 78.9948 7.09277 78.792 7.0762C78.2787 7.03426 77.5775 7.03128 76.3614 7.03128H10.1338ZM47.3252 37.1797C49.267 37.1797 50.8408 38.7536 50.8408 40.6953C50.8408 42.6371 49.267 44.211 47.3252 44.211H26.8516C24.9098 44.211 23.336 42.6371 23.336 40.6953C23.336 38.7536 24.9098 37.1797 26.8516 37.1797H47.3252ZM59.6094 20.793C61.5512 20.793 63.125 22.3668 63.125 24.3086C63.125 26.2504 61.5512 27.8242 59.6094 27.8242H26.8516C24.9098 27.8242 23.336 26.2504 23.336 24.3086C23.336 22.3668 24.9098 20.793 26.8516 20.793H59.6094Z" fill="var(-----Color-------Label-couiColorLabelPrimary, black)"/>
</svg>
