<svg width="88" height="80" viewBox="0 0 88 80" fill="none" xmlns="http://www.w3.org/2000/svg">
<path d="M57.9749 0C62.6781 0.000346548 67.1487 3.51206 67.1487 8.61426V70.5342C67.1485 75.6362 62.678 79.1481 57.9749 79.1484H29.1741C24.4709 79.1483 20.0006 75.6363 20.0003 70.5342V8.61426C20.0003 3.51194 24.4708 0.000182299 29.1741 0H57.9749ZM29.1741 7.14844C27.6923 7.1486 27.1488 8.14972 27.1487 8.61426V70.5342C27.1491 70.9989 27.6928 71.9998 29.1741 72H57.9749C59.4561 71.9997 60 70.9989 60.0003 70.5342V8.61426C60.0003 8.14976 59.4565 7.14875 57.9749 7.14844H29.1741ZM1.28546 17.626C2.80154 16.3618 5.05531 16.566 6.31964 18.082L14.3196 27.6738C15.425 28.9996 15.425 30.9271 14.3196 32.2529L8.22589 39.5605L14.3216 46.8828C15.4241 48.2078 15.4244 50.1312 14.3216 51.4561L6.3216 61.0664C5.05871 62.5835 2.80464 62.7899 1.28742 61.5273C-0.229793 60.2644 -0.435417 58.0104 0.827456 56.4932L6.92316 49.1689L0.827456 41.8457C-0.276224 40.5199 -0.27526 38.5945 0.82941 37.2695L6.92023 29.9639L0.82941 22.6602C-0.434802 21.1441 -0.230554 18.8903 1.28546 17.626ZM80.8275 18.1025C82.0905 16.5858 84.3446 16.3797 85.8616 17.6426C87.3785 18.9055 87.5842 21.1596 86.3216 22.6768L80.2259 29.998L86.3196 37.3066C87.425 38.6325 87.425 40.559 86.3196 41.8848L80.2288 49.1875L86.3196 56.4893C87.584 58.0051 87.3793 60.2599 85.8636 61.5244C84.3476 62.7884 82.0938 62.5842 80.8294 61.0684L72.8294 51.4775C71.7235 50.1516 71.7236 48.2244 72.8294 46.8984L78.9202 39.5938L72.8294 32.2891C71.7247 30.9641 71.7238 29.0387 72.8275 27.7129L80.8275 18.1025ZM43.5833 9.73047C45.461 9.73047 46.9836 11.2522 46.9837 13.1299C46.9837 15.0077 45.4611 16.5303 43.5833 16.5303C41.7057 16.5301 40.1839 15.0076 40.1839 13.1299C40.184 11.2523 41.7057 9.73061 43.5833 9.73047Z" fill="black"/>
</svg>
