<svg width="92" height="79" viewBox="0 0 92 79" fill="none" xmlns="http://www.w3.org/2000/svg">
<path d="M45.8332 11.7615C41.4136 6.64597 34.8367 3.39062 27.4706 3.39062C14.1766 3.39062 3.39062 13.9834 3.39062 27.0393C3.39062 34.17 6.61766 40.5429 11.6862 44.8834L40.451 73.1328C43.2638 75.8953 47.7712 75.8953 50.584 73.1328L79.454 44.78L58.8641 24.6279L58.829 24.6623L47.131 36.1508C43.4305 39.7851 37.4324 39.7851 33.7318 36.1508C30.0312 32.5165 30.0312 26.6259 33.7318 22.9916C33.7318 22.9916 45.5701 11.3998 46.1313 10.8486C50.5159 6.26704 56.7595 3.40785 63.6696 3.40785C76.9811 3.40785 87.7496 14.0006 87.7496 27.0565C87.7496 34.1183 84.4524 40.3879 79.4365 44.7111" stroke="#0066FF" stroke-width="6.78" stroke-miterlimit="10" stroke-linejoin="round"/>
</svg>
