<svg width="23" height="21" viewBox="0 0 23 21" fill="none" xmlns="http://www.w3.org/2000/svg">
<path fill-rule="evenodd" clip-rule="evenodd" d="M18.5906 0.00576061L19.9381 3.51624C19.9381 3.51624 14.5684 2.99855 9.86538 4.51704C6.60188 5.5708 6.578 8.05509 10.7723 7.83235C14.2968 7.64505 21.2263 6.49984 22.7504 10.7735C23.8966 13.9882 21.0755 17.2794 14.6989 19.1445C9.72337 20.5999 3.94446 20.0044 3.94446 20.0044L2.62836 16.5035C2.62836 16.5035 8.33029 17.5034 12.9404 15.5675C17.4913 13.6564 16.2875 11.7708 11.0231 12.3642C6.33335 12.8906 1.43125 13.0337 0.303166 10.0326C-0.824924 7.03153 1.06452 3.00424 8.18254 1.20305C11.5828 0.348826 15.0829 -0.0538073 18.5906 0.00576061Z" fill="var(--natural_2, black)" fill-opacity="0.75"/>
</svg>
