<svg width="71" height="63" viewBox="0 0 71 63" fill="none" xmlns="http://www.w3.org/2000/svg">
<path fill-rule="evenodd" clip-rule="evenodd" d="M2.07422 12.2059C2.07422 10.0692 3.38577 8.15156 5.37707 7.37677L18.6254 2.22199C19.6701 1.8155 20.8613 2.30596 21.4277 3.27332C23.2172 6.32939 27.6416 12.2465 35.0742 12.2465C42.5197 12.2465 46.9991 6.3089 48.8096 3.25748C49.3792 2.29736 50.5665 1.81445 51.6062 2.22108L64.7798 7.3734C66.7667 8.15048 68.0742 10.0658 68.0742 12.1993V24.5908C68.0742 26.5953 66.2053 28.076 64.254 27.6175L62.1352 27.1197C60.8344 26.814 59.5885 27.8011 59.5884 29.1374L59.5873 54.2743C59.5872 57.7084 56.8033 60.4922 53.3692 60.4922H16.7793C13.3452 60.4922 10.5612 57.7084 10.5611 54.2743L10.56 29.1374C10.56 27.8011 9.31408 26.814 8.01322 27.1197L5.89446 27.6175C3.94311 28.076 2.07422 26.5953 2.07422 24.5908V12.2059Z" stroke="var(--natural_2, black)" stroke-opacity="0.75" stroke-width="4.14545"/>
</svg>
