<svg width="1040" height="158" viewBox="0 0 1040 158" fill="none" xmlns="http://www.w3.org/2000/svg">
<g filter="url(#filter0_d_4794_1079)">
<path d="M4 34.6C4 22.8389 4 16.9583 6.28886 12.4662C8.3022 8.5148 11.5148 5.3022 15.4662 3.28886C19.9583 1 25.8389 1 37.6 1H1002.4C1014.16 1 1020.04 1 1024.53 3.28886C1028.49 5.3022 1031.7 8.5148 1033.71 12.4662C1036 16.9583 1036 22.8389 1036 34.6V117.4C1036 129.161 1036 135.042 1033.71 139.534C1031.7 143.485 1028.49 146.698 1024.53 148.711C1020.04 151 1014.16 151 1002.4 151H37.6C25.8389 151 19.9583 151 15.4662 148.711C11.5148 146.698 8.3022 143.485 6.28886 139.534C4 135.042 4 129.161 4 117.4V34.6Z" fill="white"/>
<path d="M37.5996 1.5H1002.4C1008.29 1.5 1012.68 1.50013 1016.15 1.78418C1019.62 2.06776 1022.14 2.63192 1024.31 3.73438C1028.16 5.69978 1031.3 8.83603 1033.27 12.6934C1034.37 14.8571 1034.93 17.377 1035.22 20.8477C1035.5 24.3243 1035.5 28.711 1035.5 34.5996V117.4C1035.5 123.289 1035.5 127.676 1035.22 131.152C1034.93 134.623 1034.37 137.143 1033.27 139.307C1031.3 143.164 1028.16 146.3 1024.31 148.266C1022.14 149.368 1019.62 149.932 1016.15 150.216C1012.68 150.5 1008.29 150.5 1002.4 150.5H37.5996C31.711 150.5 27.3243 150.5 23.8477 150.216C20.377 149.932 17.8571 149.368 15.6934 148.266C11.836 146.3 8.69978 143.164 6.73438 139.307C5.63192 137.143 5.06776 134.623 4.78418 131.152C4.50013 127.676 4.5 123.289 4.5 117.4V34.5996C4.5 28.711 4.50013 24.3243 4.78418 20.8477C5.06776 17.377 5.63192 14.8571 6.73438 12.6934C8.69978 8.83604 11.836 5.69978 15.6934 3.73438C17.8571 2.63192 20.377 2.06776 23.8477 1.78418C26.4552 1.57113 29.5749 1.51831 33.4561 1.50488L37.5996 1.5Z" stroke="url(#paint0_linear_4794_1079)"/>
</g>
<defs>
<filter id="filter0_d_4794_1079" x="0" y="0" width="1040" height="158" filterUnits="userSpaceOnUse" color-interpolation-filters="sRGB">
<feFlood flood-opacity="0" result="BackgroundImageFix"/>
<feColorMatrix in="SourceAlpha" type="matrix" values="0 0 0 0 0 0 0 0 0 0 0 0 0 0 0 0 0 0 127 0" result="hardAlpha"/>
<feOffset dy="3"/>
<feGaussianBlur stdDeviation="2"/>
<feComposite in2="hardAlpha" operator="out"/>
<feColorMatrix type="matrix" values="0 0 0 0 0.109804 0 0 0 0 0.168627 0 0 0 0 0.290196 0 0 0 0.12 0"/>
<feBlend mode="normal" in2="BackgroundImageFix" result="effect1_dropShadow_4794_1079"/>
<feBlend mode="normal" in="SourceGraphic" in2="effect1_dropShadow_4794_1079" result="shape"/>
</filter>
<linearGradient id="paint0_linear_4794_1079" x1="520" y1="1" x2="520" y2="151" gradientUnits="userSpaceOnUse">
<stop offset="0.895842" stop-color="#CBCDD1"/>
<stop offset="1" stop-color="#CBCDD1" stop-opacity="0"/>
</linearGradient>
</defs>
</svg>
