<svg width="58" height="56" viewBox="0 0 58 56" fill="none" xmlns="http://www.w3.org/2000/svg">
<path d="M26.0754 3.92361C27.1759 1.69387 30.3554 1.69388 31.4558 3.92361L37.3252 15.8163C37.7622 16.7017 38.6069 17.3155 39.584 17.4574L52.7084 19.3645C55.1691 19.7221 56.1516 22.746 54.3711 24.4816L44.8742 33.7388C44.1671 34.428 43.8445 35.421 44.0114 36.3942L46.2533 49.4655C46.6736 51.9162 44.1013 53.7851 41.9004 52.628L30.1616 46.4566C29.2877 45.9971 28.2436 45.9971 27.3696 46.4566L15.6308 52.628C13.4299 53.7851 10.8576 51.9162 11.278 49.4655L13.5199 36.3942C13.6868 35.421 13.3641 34.428 12.6571 33.7388L3.16019 24.4816C1.37964 22.746 2.36217 19.7221 4.82283 19.3645L17.9472 17.4574C18.9243 17.3155 19.769 16.7017 20.206 15.8163L26.0754 3.92361Z" stroke="#0D0D0D" stroke-opacity="0.8" stroke-width="4.5"/>
</svg>
